<?xml version="1.0" encoding="UTF-8" standalone="no"?>
<!DOCTYPE svg PUBLIC "-//W3C//DTD SVG 1.1//EN" "http://www.w3.org/Graphics/SVG/1.1/DTD/svg11.dtd">
<svg xmlns="http://www.w3.org/2000/svg" version="1.1" viewBox="0 0 278 116">
<path stroke="#925d3e" stroke-width="2.00" fill="none" stroke-linecap="butt" vector-effect="non-scaling-stroke" d="
  M 89.50 40.29
  Q 89.38 40.76 89.72 41.01
  Q 93.90 44.02 96.84 48.09"
/>
<path fill="#353f6e" d="
  M 54.81 0.00
  L 59.06 0.00
  Q 65.55 1.98 67.64 7.83
  C 71.60 18.93 59.46 28.25 49.84 21.41
  C 41.21 15.27 45.38 2.74 54.81 0.00
  Z"
/>
<circle fill="#ef7a0e" cx="111.90" cy="17.63" r="8.45"/>
<path fill="#353f6e" d="
  M 89.50 40.29
  Q 89.38 40.76 89.72 41.01
  Q 93.90 44.02 96.84 48.09
  Q 81.78 39.17 67.94 46.51
  C 45.85 58.22 47.95 91.37 72.33 98.82
  C 80.51 101.32 93.55 99.85 103.25 99.52
  A 0.26 0.18 -2.3 0 1 103.50 99.68
  C 103.52 99.85 103.52 99.85 103.36 99.90
  C 77.26 108.06 39.13 108.64 32.47 73.79
  Q 29.67 59.17 32.02 44.43
  A 0.62 0.61 -78.5 0 0 31.57 43.74
  Q 16.05 39.66 0.55 43.60
  Q -0.40 43.85 0.38 43.26
  C 26.57 23.78 60.94 19.11 88.15 39.97
  A 1.81 0.82 -6.4 0 0 89.02 40.25
  L 89.50 40.29
  Z"
/>
<path fill="#ef7a0e" d="
  M 96.84 48.09
  Q 93.90 44.02 89.72 41.01
  Q 89.38 40.76 89.50 40.29
  C 108.58 25.91 131.58 22.79 149.94 40.10
  Q 151.43 41.50 149.25 41.30
  L 137.01 40.13
  Q 134.81 39.92 134.59 42.24
  C 132.27 65.99 119.61 89.31 95.28 96.51
  Q 94.68 96.69 94.40 96.42
  A 0.56 0.40 -38.5 0 1 94.60 95.70
  C 113.16 82.94 112.55 62.98 96.84 48.09
  Z"
/>
<ellipse fill="#353f6e" cx="0.00" cy="0.00" transform="translate(227.00,63.49) rotate(-11.3)" rx="4.81" ry="4.50"/>
<path fill="#353f6e" d="
  M 140.19 91.25
  L 136.03 98.78
  A 0.42 0.42 -77.1 0 1 135.66 99.00
  L 127.04 99.00
  A 0.42 0.42 15.9 0 1 126.67 98.37
  L 147.99 61.21
  A 0.42 0.42 -75.2 0 1 148.35 61.00
  L 157.90 61.00
  A 0.42 0.42 -3.8 0 1 158.31 61.36
  L 163.60 98.53
  A 0.42 0.42 -3.7 0 1 163.19 99.01
  L 155.28 99.00
  A 0.42 0.42 86.7 0 1 154.86 98.63
  L 153.98 91.35
  A 0.42 0.42 86.3 0 0 153.56 90.98
  L 140.56 91.03
  A 0.42 0.42 -75.6 0 0 140.19 91.25
  Z
  M 151.31 69.26
  L 143.89 83.32
  A 0.47 0.43 -75.0 0 0 144.25 84.00
  L 152.50 84.00
  A 0.68 0.63 87.1 0 0 153.12 83.26
  L 151.82 69.26
  Q 151.75 68.44 151.31 69.26
  Z"
/>
<path fill="#353f6e" d="
  M 272.00 72.00
  L 277.25 72.00
  A 0.56 0.42 5.1 0 1 277.83 72.52
  L 276.42 77.80
  A 0.97 0.24 0.8 0 1 275.50 78.01
  L 270.50 78.00
  A 0.88 0.46 -81.6 0 0 269.96 78.74
  Q 268.86 84.64 267.71 90.41
  C 266.65 95.71 270.15 93.37 272.74 93.29
  A 0.45 0.36 3.3 0 1 273.21 93.72
  L 272.50 97.05
  Q 271.95 99.62 269.09 99.84
  C 259.36 100.62 258.18 96.72 259.78 88.19
  Q 260.68 83.43 261.72 78.71
  A 0.58 0.50 -83.1 0 0 261.25 78.00
  L 258.25 78.00
  A 0.59 0.47 -81.5 0 1 257.83 77.27
  L 259.04 72.51
  A 0.74 0.66 5.8 0 1 259.75 72.00
  L 262.50 72.00
  A 0.78 0.65 5.5 0 0 263.24 71.50
  L 264.30 67.01
  A 1.57 1.31 -87.9 0 1 265.33 65.87
  L 272.58 64.13
  A 0.50 0.49 -89.9 0 1 273.17 64.73
  L 271.53 71.51
  A 0.47 0.40 5.8 0 0 272.00 72.00
  Z"
/>
<path fill="#353f6e" d="
  M 174.31 93.96
  Q 176.09 94.53 178.03 93.81
  C 184.79 91.28 173.31 86.62 172.17 84.91
  C 168.21 79.00 171.63 73.35 177.86 71.60
  Q 183.44 70.04 189.25 72.16
  A 0.68 0.47 17.1 0 1 189.72 72.75
  L 188.88 77.93
  A 1.01 0.94 18.4 0 1 187.45 78.59
  C 185.13 77.42 180.99 75.68 179.18 78.28
  C 176.11 82.67 192.43 84.11 186.98 94.77
  C 183.78 101.03 173.36 100.71 167.74 98.67
  A 0.72 0.57 15.3 0 1 167.25 98.00
  L 168.16 92.43
  A 0.60 0.39 15.1 0 1 168.89 92.20
  L 174.31 93.96
  Z"
/>
<path fill="#353f6e" d="
  M 198.31 93.96
  Q 200.09 94.53 202.03 93.81
  C 208.79 91.28 197.31 86.62 196.17 84.91
  C 192.21 79.00 195.63 73.35 201.86 71.60
  Q 207.44 70.03 213.25 72.16
  A 0.69 0.46 16.9 0 1 213.73 72.75
  L 212.81 78.27
  A 0.70 0.69 -69.4 0 1 211.76 78.75
  Q 208.42 76.64 204.49 77.12
  A 1.49 0.68 -57.1 0 0 203.71 77.62
  C 200.68 80.88 205.99 82.79 208.08 84.20
  Q 214.27 88.37 210.99 94.78
  C 207.80 101.02 197.35 100.71 191.74 98.67
  A 0.72 0.57 15.3 0 1 191.25 98.00
  L 192.16 92.43
  A 0.60 0.39 15.1 0 1 192.89 92.20
  L 198.31 93.96
  Z"
/>
<path fill="#353f6e" d="
  M 239.50 93.99
  Q 241.15 94.51 243.12 93.77
  C 249.69 91.30 238.29 86.59 237.17 84.91
  C 233.21 79.00 236.63 73.35 242.86 71.60
  Q 248.36 70.06 254.13 72.09
  A 0.83 0.48 17.0 0 1 254.74 72.75
  L 253.70 78.69
  A 0.56 0.38 25.3 0 1 252.92 78.81
  C 250.85 77.49 245.89 75.65 244.14 78.34
  C 242.89 80.27 244.75 81.66 246.47 82.46
  C 249.69 83.97 252.68 86.29 252.94 90.10
  C 253.66 100.72 239.57 101.18 232.75 98.64
  A 0.74 0.50 17.4 0 1 232.24 98.00
  L 233.19 92.49
  A 0.71 0.40 15.3 0 1 234.03 92.28
  L 239.50 93.99
  Z"
/>
<path fill="#353f6e" d="
  M 227.48 94.05
  L 230.01 93.74
  A 0.42 0.26 -83.6 0 1 230.25 94.24
  L 229.42 98.01
  A 2.33 2.26 3.0 0 1 227.39 99.78
  Q 215.07 101.03 217.40 89.71
  Q 219.15 81.17 221.04 72.61
  A 0.77 0.72 -83.5 0 1 221.75 72.00
  L 229.00 72.00
  A 0.62 0.49 -83.0 0 1 229.45 72.74
  L 225.60 91.72
  Q 225.07 94.35 227.48 94.05
  Z"
/>
</svg>
